<svg width="49" height="68" viewBox="0 0 49 68" fill="none" xmlns="http://www.w3.org/2000/svg">
<g id="logos:css-3" clip-path="url(#clip0_164_1963)">
<path id="Vector" d="M24.4708 67.519L4.93668 62.0959L0.583496 13.2691H48.4166L44.0589 62.0884L24.4708 67.519Z" fill="#264DE4"/>
<path id="Vector_2" d="M40.3282 58.9798L44.0519 17.2614H24.5V63.368L40.3282 58.9798Z" fill="#2965F1"/>
<path id="Vector_3" d="M10.5629 35.3706L11.0995 41.359H24.4999V35.3706H10.5629ZM9.48438 23.2499L10.0287 29.2383H24.4999V23.2499H9.48438ZM24.4999 50.9231L24.4737 50.9301L17.8047 49.1293L17.3783 44.3533H11.3671L12.2059 53.756L24.4724 57.1611L24.4999 57.1536V50.9231Z" fill="#EBEBEB"/>
<path id="Vector_4" d="M11.8408 0H19.0933V3.03311H14.8738V6.06622H19.0937V9.09915H11.8408V0ZM20.544 0H27.7967V2.63747H23.577V3.16493H27.7967V9.23115H20.5442V6.46149H24.7639V5.93403H20.5438L20.544 0ZM29.2474 0H36.5001V2.63747H32.2804V3.16493H36.5001V9.23115H29.2474V6.46149H33.4671V5.93403H29.2476V0H29.2474Z" fill="white"/>
<path id="Vector_5" d="M38.3989 35.3706L39.4798 23.2499H24.4794V29.2383H32.9173L32.3724 35.3706H24.4794V41.359H31.8532L31.158 49.1255L24.4792 50.9282V57.1583L36.7554 53.756L36.8454 52.7442L38.2528 36.9786L38.3989 35.3706Z" fill="white"/>
</g>
<defs>
<clipPath id="clip0_164_1963">
<rect width="48" height="67.69" fill="white" transform="translate(0.5)"/>
</clipPath>
</defs>
</svg>
