<svg width="49" height="68" viewBox="0 0 49 68" fill="none" xmlns="http://www.w3.org/2000/svg">
<g id="logos:html-5" clip-path="url(#clip0_164_1957)">
<path id="Vector" d="M48.4166 13.2686L44.0589 62.0861L24.4708 67.5165L4.93668 62.0936L0.583496 13.2686H48.4166Z" fill="#E44D26"/>
<path id="Vector_2" d="M24.5 63.3656L40.3282 58.9776L44.0519 17.2607H24.5V63.3656Z" fill="#F16529"/>
<path id="Vector_3" d="M16.0287 29.2373H24.4999V23.2491H9.48438L9.62762 24.8556L11.0995 41.3575H24.4999V35.3693H16.576L16.0287 29.2373ZM17.3783 44.3517H11.3671L12.2059 53.754L24.4724 57.159L24.4999 57.1515V50.9213L24.4737 50.9282L17.8047 49.1275L17.3783 44.3517Z" fill="#EBEBEB"/>
<path id="Vector_4" d="M5.03369 0H8.07682V3.00656H10.8606V0H13.9039V9.10462H10.8608V6.05587H8.077V9.10462H5.03388L5.03369 0ZM17.9056 3.01931H15.2269V0H23.6296V3.01931H20.9493V9.10462H17.9061V3.01931H17.9056ZM24.9631 0H28.1361L30.088 3.19913L32.038 0H35.2124V9.10462H32.1816V4.59188L30.088 7.82906H30.0355L27.9406 4.59188V9.10462H24.9631V0ZM36.7268 0H39.7709V6.09525H44.0504V9.10462H36.7266V0H36.7268Z" fill="white"/>
<path id="Vector_5" d="M24.4794 41.3575H31.8532L31.158 49.1237L24.4792 50.9263V57.1562L36.7554 53.754L36.8454 52.7423L38.2528 36.9773L38.3989 35.3693H24.4794V41.3575ZM24.4794 29.2226V29.2373H38.9437L39.0637 27.8914L39.3367 24.8556L39.4798 23.2491H24.4794V29.2226Z" fill="white"/>
</g>
<defs>
<clipPath id="clip0_164_1957">
<rect width="48" height="67.6875" fill="white" transform="translate(0.5)"/>
</clipPath>
</defs>
</svg>
