<svg width="54" height="53" viewBox="0 0 54 53" fill="none" xmlns="http://www.w3.org/2000/svg">
<g id="vscode-icons:file-type-js-official">
<path id="Vector" d="M3.8125 3.3125H50.1875V49.6875H3.8125V3.3125Z" fill="#F5DE19"/>
<path id="Vector_2" d="M34.965 39.543C35.3601 40.3456 35.974 41.0202 36.7359 41.4891C37.4978 41.9579 38.3767 42.2019 39.2712 42.193C41.0766 42.193 42.231 41.2903 42.231 40.0398C42.231 38.5492 41.0451 38.0159 39.0576 37.1464L37.9678 36.6793C34.8209 35.3394 32.734 33.6616 32.734 30.1139C32.734 26.8462 35.2184 24.3568 39.1156 24.3568C40.3771 24.2657 41.6376 24.5481 42.7398 25.1687C43.8419 25.7892 44.7369 26.7206 45.3132 27.8465L41.9063 30.0245C41.6844 29.4662 41.2981 28.9886 40.7985 28.6549C40.2989 28.3213 39.7096 28.1474 39.1089 28.1563C38.8468 28.13 38.5822 28.1587 38.3318 28.2404C38.0814 28.3221 37.8507 28.455 37.6546 28.6308C37.4584 28.8066 37.301 29.0213 37.1924 29.2612C37.0837 29.5012 37.0263 29.7611 37.0237 30.0245C37.0237 31.3313 37.8336 31.8613 39.7035 32.6745L40.7933 33.1416C44.4967 34.7299 46.5902 36.3481 46.5902 39.9868C46.5902 43.9105 43.5079 46.0603 39.369 46.0603C37.7563 46.1631 36.1483 45.7969 34.7391 45.0061C33.3299 44.2152 32.1797 43.0334 31.4272 41.6033L34.965 39.543ZM19.5701 39.9206C20.2542 41.1346 20.8769 42.1615 22.3742 42.1615C23.8052 42.1615 24.7095 41.6017 24.7095 39.4237V24.6053H29.0671V39.4817C29.0671 43.9933 26.4171 46.0471 22.5597 46.0471C21.1962 46.1216 19.842 45.7818 18.6753 45.0723C17.5085 44.3629 16.5837 43.3169 16.0225 42.0721L19.5701 39.9206Z" fill="black"/>
</g>
</svg>
