<svg width="30" height="29" viewBox="0 0 30 29" fill="none" xmlns="http://www.w3.org/2000/svg">
<path id="Vector" d="M0 7.40816H8.2653C9.18367 7.40816 9.91837 8.14285 9.91837 9.06122C9.91837 9.97959 9.18367 10.7143 8.2653 10.7143H0C0.306122 14.8775 3.79592 18.1224 8.02041 18.1224H8.32653C9.2449 18.1224 9.97959 18.8571 9.97959 19.7755C9.97959 20.6939 9.2449 21.4286 8.32653 21.4286H8.02041C3.79592 21.4286 0.306122 24.6735 0 28.8367H21.9796C26.2041 28.8367 29.6939 25.5918 30 21.4286H21.7347C20.8163 21.4286 20.0816 20.6939 20.0816 19.7755C20.0816 18.8571 20.8163 18.1224 21.7347 18.1224H30C29.6939 13.9592 26.2041 10.7143 21.9796 10.7143H21.6735C20.7551 10.7143 20.0204 9.97959 20.0204 9.06122C20.0204 8.14285 20.7551 7.40816 21.6735 7.40816H21.9796C26.2041 7.40816 29.6939 4.16326 30 0H8.02041C3.79592 0 0.306122 3.2449 0 7.40816Z" fill="white"/>
</svg>
